<svg xmlns="http://www.w3.org/2000/svg" width="1600" height="1000" viewBox="0 0 1600 1000" role="img" aria-labelledby="t d">
<title id="t">SETTING INDEX / EIGHT SCENES</title><desc id="d">Original angular dinner-table editorial collage.</desc>
<defs>
  <linearGradient id="g" x1="0" y1="0" x2="1" y2="1"><stop stop-color="#111428"/><stop offset="1" stop-color="#090A12"/></linearGradient>
  <pattern id="grid" width="44" height="44" patternUnits="userSpaceOnUse"><path d="M44 0H0V44" fill="none" stroke="#ffffff" stroke-opacity=".055"/></pattern>
  <filter id="shadow" x="-20%" y="-20%" width="150%" height="150%"><feDropShadow dx="16" dy="18" stdDeviation="7" flood-color="#000" flood-opacity=".32"/></filter>
</defs><rect width="1600" height="1000" fill="url(#g)"/><rect width="1600" height="1000" fill="url(#grid)"/>
<text x="62" y="68" fill="#F4EEDF" font-family="Arial,sans-serif" font-size="18" font-weight="700" letter-spacing="5">TABLE ESSENCE POINT</text>
<rect x="62" y="91" width="86" height="8" fill="#FF675C"/><g transform="rotate(-3 158 450.0)"><rect x="78" y="170" width="158" height="560" fill="#F4F04B"/><text x="157" y="262" text-anchor="middle" fill="#090A12" font-family="Arial" font-size="64" font-weight="900">01</text><ellipse cx="157" cy="625" rx="55" ry="34" fill="#F4EEDF" stroke="#090A12" stroke-width="7"/></g><g transform="rotate(-1 343 501.0)"><rect x="263" y="245" width="158" height="512" fill="#2448FF"/><text x="342" y="337" text-anchor="middle" fill="#090A12" font-family="Arial" font-size="64" font-weight="900">02</text><ellipse cx="342" cy="652" rx="55" ry="34" fill="#F4EEDF" stroke="#090A12" stroke-width="7"/></g><g transform="rotate(1 528 402.0)"><rect x="448" y="170" width="158" height="464" fill="#FF675C"/><text x="527" y="262" text-anchor="middle" fill="#090A12" font-family="Arial" font-size="64" font-weight="900">03</text><ellipse cx="527" cy="529" rx="55" ry="34" fill="#F4EEDF" stroke="#090A12" stroke-width="7"/></g><g transform="rotate(3 713 525.0)"><rect x="633" y="245" width="158" height="560" fill="#8FE3C2"/><text x="712" y="337" text-anchor="middle" fill="#090A12" font-family="Arial" font-size="64" font-weight="900">04</text><ellipse cx="712" cy="700" rx="55" ry="34" fill="#F4EEDF" stroke="#090A12" stroke-width="7"/></g><g transform="rotate(-3 898 426.0)"><rect x="818" y="170" width="158" height="512" fill="#BDA9FF"/><text x="897" y="262" text-anchor="middle" fill="#090A12" font-family="Arial" font-size="64" font-weight="900">05</text><ellipse cx="897" cy="577" rx="55" ry="34" fill="#F4EEDF" stroke="#090A12" stroke-width="7"/></g><g transform="rotate(-1 1083 477.0)"><rect x="1003" y="245" width="158" height="464" fill="#FF9E3D"/><text x="1082" y="337" text-anchor="middle" fill="#090A12" font-family="Arial" font-size="64" font-weight="900">06</text><ellipse cx="1082" cy="604" rx="55" ry="34" fill="#F4EEDF" stroke="#090A12" stroke-width="7"/></g><g transform="rotate(1 1268 450.0)"><rect x="1188" y="170" width="158" height="560" fill="#6BC4FF"/><text x="1267" y="262" text-anchor="middle" fill="#090A12" font-family="Arial" font-size="64" font-weight="900">07</text><ellipse cx="1267" cy="625" rx="55" ry="34" fill="#F4EEDF" stroke="#090A12" stroke-width="7"/></g><g transform="rotate(3 1453 501.0)"><rect x="1373" y="245" width="158" height="512" fill="#F68CB6"/><text x="1452" y="337" text-anchor="middle" fill="#090A12" font-family="Arial" font-size="64" font-weight="900">08</text><ellipse cx="1452" cy="652" rx="55" ry="34" fill="#F4EEDF" stroke="#090A12" stroke-width="7"/></g><rect x="62" y="884" width="1476" height="72" fill="#F4EEDF"/>
<text x="90" y="930" fill="#090A12" font-family="Arial,sans-serif" font-size="25" font-weight="800" letter-spacing="3">SETTING INDEX / EIGHT SCENES</text>
<rect x="1470" y="884" width="68" height="72" fill="#FF675C"/></svg>