<svg xmlns="http://www.w3.org/2000/svg" width="1536" height="1024" viewBox="0 0 1536 1024"><rect width="1536" height="1024" fill="#E9DFD2"/><text x="58" y="72" fill="#613A52" font-family="monospace" font-size="18" letter-spacing="4">TABLE ESSENCE POINT / PLAN</text><text x="58" y="966" fill="#613A52" font-family="monospace" font-size="24" letter-spacing="2">TABLE SCALE / GUEST COUNT</text><ellipse cx="768" cy="510" rx="500" ry="330" fill="none" stroke="#613A52" stroke-width="14"/><circle cx="1268" cy="510" r="72" fill="#F6EFE5" stroke="#D36A45" stroke-width="10"/><circle cx="1268" cy="510" r="45.36" fill="none" stroke="#D36A45" stroke-width="4"/><circle cx="1018" cy="796" r="72" fill="#F6EFE5" stroke="#D36A45" stroke-width="10"/><circle cx="1018" cy="796" r="45.36" fill="none" stroke="#D36A45" stroke-width="4"/><circle cx="518" cy="796" r="72" fill="#F6EFE5" stroke="#D36A45" stroke-width="10"/><circle cx="518" cy="796" r="45.36" fill="none" stroke="#D36A45" stroke-width="4"/><circle cx="268" cy="510" r="72" fill="#F6EFE5" stroke="#D36A45" stroke-width="10"/><circle cx="268" cy="510" r="45.36" fill="none" stroke="#D36A45" stroke-width="4"/><circle cx="518" cy="224" r="72" fill="#F6EFE5" stroke="#D36A45" stroke-width="10"/><circle cx="518" cy="224" r="45.36" fill="none" stroke="#D36A45" stroke-width="4"/><circle cx="1018" cy="224" r="72" fill="#F6EFE5" stroke="#D36A45" stroke-width="10"/><circle cx="1018" cy="224" r="45.36" fill="none" stroke="#D36A45" stroke-width="4"/><circle cx="768" cy="510" r="150" fill="#D36A45" opacity=".82"/><path d="M618 510 H918 M768 360 V660" stroke="#E9DFD2" stroke-width="8"/><path d="M160 180 V840 M1380 180 V840" stroke="#D36A45" stroke-width="4" stroke-dasharray="16 14"/></svg>