<svg xmlns="http://www.w3.org/2000/svg" width="1600" height="1000" viewBox="0 0 1600 1000" role="img" aria-labelledby="t d">
<title id="t">03 / BUILD A POOL OF LIGHT</title><desc id="d">Original angular dinner-table editorial collage.</desc>
<defs>
  <linearGradient id="g" x1="0" y1="0" x2="1" y2="1"><stop stop-color="#111428"/><stop offset="1" stop-color="#090A12"/></linearGradient>
  <pattern id="grid" width="44" height="44" patternUnits="userSpaceOnUse"><path d="M44 0H0V44" fill="none" stroke="#ffffff" stroke-opacity=".055"/></pattern>
  <filter id="shadow" x="-20%" y="-20%" width="150%" height="150%"><feDropShadow dx="16" dy="18" stdDeviation="7" flood-color="#000" flood-opacity=".32"/></filter>
</defs><rect width="1600" height="1000" fill="url(#g)"/><rect width="1600" height="1000" fill="url(#grid)"/>
<text x="62" y="68" fill="#F4EEDF" font-family="Arial,sans-serif" font-size="18" font-weight="700" letter-spacing="5">TABLE ESSENCE POINT</text>
<rect x="62" y="91" width="86" height="8" fill="#FF675C"/><path d="M310 105L140 505H480Z" fill="#F4F04B" opacity=".22"/><rect x="292" y="560" width="36" height="220" fill="#F4EEDF"/><path d="M282 560Q310 500 338 560Z" fill="#F4F04B"/><ellipse cx="310" cy="750.0" rx="150" ry="38" fill="#F4F04B" opacity=".55"/><path d="M650 105L480 625H820Z" fill="#FF675C" opacity=".22"/><rect x="632" y="680" width="36" height="220" fill="#F4EEDF"/><path d="M622 680Q650 620 678 680Z" fill="#FF675C"/><ellipse cx="650" cy="765.0" rx="150" ry="38" fill="#FF675C" opacity=".55"/><path d="M990 105L820 455H1160Z" fill="#BDA9FF" opacity=".22"/><rect x="972" y="510" width="36" height="220" fill="#F4EEDF"/><path d="M962 510Q990 450 1018 510Z" fill="#BDA9FF"/><ellipse cx="990" cy="743.75" rx="150" ry="38" fill="#BDA9FF" opacity=".55"/><path d="M1280 105L1110 575H1450Z" fill="#8FE3C2" opacity=".22"/><rect x="1262" y="630" width="36" height="220" fill="#F4EEDF"/><path d="M1252 630Q1280 570 1308 630Z" fill="#8FE3C2"/><ellipse cx="1280" cy="758.75" rx="150" ry="38" fill="#8FE3C2" opacity=".55"/><rect x="62" y="884" width="1476" height="72" fill="#F4EEDF"/>
<text x="90" y="930" fill="#090A12" font-family="Arial,sans-serif" font-size="25" font-weight="800" letter-spacing="3">03 / BUILD A POOL OF LIGHT</text>
<rect x="1470" y="884" width="68" height="72" fill="#FF675C"/></svg>